<?xml version="1.0" encoding="iso-8859-1"?>
<!-- Generator: Adobe Illustrator 19.0.0, SVG Export Plug-In . SVG Version: 6.00 Build 0)  -->
<svg version="1.1" id="Layer_1" xmlns="http://www.w3.org/2000/svg" xmlns:xlink="http://www.w3.org/1999/xlink" x="0px" y="0px"
	 viewBox="0 0 512 512" style="enable-background:new 0 0 512 512;" xml:space="preserve">
<g transform="translate(1 1)">
	<g>
		<g>
			<path d="M437.613,312.173L364.227,357.4c-10.24,5.973-33.28,7.68-54.613,7.68c3.935-7.083,2.776-15.621-3.45-25.607
				c-0.27-3.453-2.174-6.015-5.122-7.099c-13.897-16.906-35.217-27.028-57.988-27.028h-33.28c-17.92,0-34.987-5.12-48.64-15.36
				c-30.791-23.093-78.94,2.035-102.4,17.023v-17.876H-1V511h59.733v-25.6h110.933c17.067,0,34.987-1.707,52.053-2.56
				l110.933-17.067c4.267,0,8.533-0.853,11.947-1.707c10.24-1.707,19.627-6.827,28.16-14.507l128.853-102.4
				c10.24-8.533,11.947-23.893,4.267-34.133C490.52,292.547,475.16,292.547,437.613,312.173z M41.667,493.933h-25.6V306.2h25.6V319
				v166.4V493.933z M491.373,335.213L361.667,435.907l-0.853,0.853c-5.12,5.973-11.947,9.387-19.627,10.24
				c-3.413,0.853-5.973,0.853-9.387,0.853L219.16,464.92c-16.213,2.56-33.28,3.413-49.493,3.413H58.733v-140.8
				c20.48-14.507,68.267-41.813,92.16-23.04c16.213,11.947,36.693,18.773,58.88,18.773h33.28c19.627,0,36.693,8.533,48.64,24.747
				c3.413,5.12,4.267,10.24,3.413,11.947c-2.56,4.267-12.8,5.973-23.893,6.827c-3.413,0-6.827,0-9.387,0h-82.773
				c-26.453,0-42.667,12.8-42.667,34.133c0,5.12,3.413,8.533,8.533,8.533c5.12,0,8.533-3.413,8.533-8.533
				c0-4.267,0-17.067,25.6-17.067h81.92v0c2.56,0,5.973,0,11.093,0c0.853,0,2.56,0,4.267,0c40.107,0.853,77.653,0,97.28-10.24
				L447,328.387c35.84-17.92,39.253-13.653,46.08-3.413C494.787,327.533,494.787,332.653,491.373,335.213z"/>
			<path d="M511,67.267V-1H400.067h-8.533H331.8c-5.12,0-8.533,3.413-8.533,8.533s3.413,8.533,8.533,8.533h59.733v51.2H408.6v17.067
				H255v102.4h17.067v34.133h8.533v25.6h85.333v-25.6h8.533v-34.133H511v-102.4h-17.067V67.267H511z M408.6,16.067h85.333V50.2
				H408.6V16.067z M348.867,229.4h-51.2v-8.533h51.2V229.4z M357.4,203.8h-68.267v-17.067H357.4V203.8z M493.933,169.667H374.467
				h-102.4V101.4H408.6h85.333V169.667z M476.867,84.333h-51.2V67.267h51.2V84.333z"/>
			<path d="M297.667,289.133c5.12,0,8.533-3.413,8.533-8.533v-8.533c0-5.12-3.413-8.533-8.533-8.533s-8.533,3.413-8.533,8.533v8.533
				C289.133,285.72,292.547,289.133,297.667,289.133z"/>
			<path d="M289.133,314.733c0,5.12,3.413,8.533,8.533,8.533s8.533-3.413,8.533-8.533V306.2c0-5.12-3.413-8.533-8.533-8.533
				s-8.533,3.413-8.533,8.533V314.733z"/>
			<path d="M323.267,289.133c5.12,0,8.533-3.413,8.533-8.533v-8.533c0-5.12-3.413-8.533-8.533-8.533s-8.533,3.413-8.533,8.533v8.533
				C314.733,285.72,318.147,289.133,323.267,289.133z"/>
			<path d="M314.733,314.733c0,5.12,3.413,8.533,8.533,8.533s8.533-3.413,8.533-8.533V306.2c0-5.12-3.413-8.533-8.533-8.533
				s-8.533,3.413-8.533,8.533V314.733z"/>
			<path d="M314.733,348.867c0,5.12,3.413,8.533,8.533,8.533s8.533-3.413,8.533-8.533v-8.533c0-5.12-3.413-8.533-8.533-8.533
				s-8.533,3.413-8.533,8.533V348.867z"/>
			<path d="M340.333,314.733c0,5.12,3.413,8.533,8.533,8.533s8.533-3.413,8.533-8.533V306.2c0-5.12-3.413-8.533-8.533-8.533
				s-8.533,3.413-8.533,8.533V314.733z"/>
			<path d="M348.867,289.133c5.12,0,8.533-3.413,8.533-8.533v-8.533c0-5.12-3.413-8.533-8.533-8.533s-8.533,3.413-8.533,8.533v8.533
				C340.333,285.72,343.747,289.133,348.867,289.133z"/>
			<path d="M340.333,348.867c0,5.12,3.413,8.533,8.533,8.533s8.533-3.413,8.533-8.533v-8.533c0-5.12-3.413-8.533-8.533-8.533
				s-8.533,3.413-8.533,8.533V348.867z"/>
		</g>
	</g>
</g>
<g>
</g>
<g>
</g>
<g>
</g>
<g>
</g>
<g>
</g>
<g>
</g>
<g>
</g>
<g>
</g>
<g>
</g>
<g>
</g>
<g>
</g>
<g>
</g>
<g>
</g>
<g>
</g>
<g>
</g>
</svg>
