<?xml version="1.0"?>
<svg xmlns="http://www.w3.org/2000/svg" viewBox="0 0 50 50" enable-background="new 0 0 50 50">
    <path style="text-indent:0;text-align:start;line-height:normal;text-transform:none;block-progression:tb;-inkscape-font-specification:Bitstream Vera Sans" d="M 23.375 0.0625 C 23.044949 0.0526173 22.722716 0.12468866 22.46875 0.21875 C 21.960819 0.40687267 21.57569 0.67069825 21.28125 0.90625 C 21.28125 0.90625 18.736225 2.8854087 17.84375 6.34375 L 19.78125 6.84375 C 20.488775 4.1020913 22.53125 2.5 22.53125 2.5 A 1.0001 1.0001 0 0 0 22.53125 2.46875 C 22.73681 2.3043018 22.989181 2.1556273 23.15625 2.09375 C 23.239784 2.0628115 23.27486 2.0678331 23.28125 2.0625 C 23.755255 2.4337845 24.252783 2.7766888 24.71875 3.0625 C 23.522133 3.7370989 22.358163 4.7544825 21.03125 7.21875 L 22.78125 8.1875 C 24.127606 5.6871252 24.856757 5.1341215 25.9375 4.59375 A 1.0001 1.0001 0 0 0 26 4.5625 C 26.572626 4.2352849 27.037866 3.5128591 26.9375 2.84375 C 26.837134 2.1746409 26.418092 1.7683116 25.96875 1.46875 A 1.0001 1.0001 0 0 0 25.90625 1.4375 C 25.439877 1.1576763 24.886712 0.76561943 24.4375 0.40625 A 1.0001 1.0001 0 0 0 24.34375 0.375 C 24.028407 0.16477111 23.705051 0.07238273 23.375 0.0625 z M 31.0625 1.53125 C 30.896512 1.5307606 30.722952 1.5563113 30.5625 1.59375 C 29.920694 1.7435047 29.384625 2.1452505 28.9375 2.65625 C 28.186995 3.5139697 26.670091 5.4494395 24.25 9.28125 L 25.9375 10.34375 C 28.317409 6.5755605 29.788005 4.7110303 30.4375 3.96875 C 30.690375 3.6797495 30.923056 3.5564953 31.03125 3.53125 C 31.12502 3.509371 31.174331 3.52463 31.28125 3.59375 C 31.29142 3.60189 31.30221 3.61681 31.3125 3.625 C 31.836433 4.041906 32.523999 4.5043884 33.125 4.90625 C 33.18294 4.947635 33.1286 4.91168 33.15625 4.9375 A 1.0001 1.0001 0 0 0 33.125 4.96875 C 31.652784 6.3428187 29.450942 8.2086345 27.375 11.21875 L 29.03125 12.375 C 30.94329 9.6025414 32.913329 7.8894662 34.4375 6.46875 C 34.44814 6.45963 34.45817 6.446802 34.46875 6.4375 C 34.927445 6.0341535 35.346781 5.4693305 35.28125 4.78125 C 35.21421 4.0773018 34.741214 3.6097957 34.28125 3.28125 A 1.0001 1.0001 0 0 0 34.25 3.28125 C 33.671335 2.8954731 32.993159 2.4007771 32.53125 2.03125 A 1.0001 1.0001 0 0 0 32.46875 2 C 32.057799 1.7064633 31.560465 1.5327183 31.0625 1.53125 z M 39.9375 4.6875 C 39.240609 4.767145 38.634829 5.0791607 38.09375 5.5 C 38.09375 5.5 34.088951 8.5877992 30.59375 13.625 L 32.21875 14.78125 C 35.523549 10.018451 39.3125 7.09375 39.3125 7.09375 C 39.671421 6.8145893 39.978141 6.6766053 40.15625 6.65625 C 40.31118 6.638544 40.426007 6.681889 40.59375 6.8125 C 40.61885 6.83204 40.62702 6.81817 40.65625 6.84375 L 42.5 8.71875 C 42.601788 8.8205384 42.651959 8.9082322 42.6875 8.96875 C 42.66174 8.9766957 42.678055 8.9475281 42.625 8.96875 A 1.0001 1.0001 0 0 0 42.59375 9 C 40.322006 10.022285 35.938429 13.050081 33.5625 15.75 L 35.0625 17.0625 C 37.077489 14.77274 41.628887 11.63929 43.375 10.84375 C 43.3829 10.84015 43.39849 10.81599 43.40625 10.8125 C 44.112739 10.514114 44.722406 9.8388011 44.75 9.09375 C 44.778116 8.3346213 44.374101 7.7491011 43.90625 7.28125 L 42 5.40625 A 1.0001 1.0001 0 0 0 41.96875 5.34375 C 41.393371 4.8402932 40.634391 4.6078553 39.9375 4.6875 z M 17.34375 7.90625 C 16.213721 7.956465 15.099831 8.3085232 14.03125 8.875 C 11.894087 10.007954 9.8795323 11.938528 8.09375 14.15625 C 6.3079677 16.373972 4.7428127 18.88957 3.625 21.21875 C 2.5071873 23.54793 1.8125 25.641512 1.8125 27.3125 C 1.8125 29.170833 2.6501719 31.294242 3.9375 33.625 C 5.2248281 35.955758 6.9966153 38.45875 8.96875 40.75 C 10.940885 43.04125 13.105311 45.132316 15.25 46.6875 C 17.293926 48.169617 19.297922 49.186677 21.21875 49.28125 C 22.816023 49.757101 24.60229 50 26.5 50 C 31.26383 50 34.723101 49.568103 37.15625 48.53125 C 39.589399 47.494397 41 45.612927 41 43.3125 C 41 39.286574 38.614201 36.290213 37.15625 30.75 C 36.423071 28.00058 36.863954 25.120282 36.53125 22.625 C 36.435483 21.906748 36.263553 21.202895 35.9375 20.5625 C 35.934796 20.214901 35.793933 19.916326 35.65625 19.6875 C 35.456114 19.354871 35.174894 19.045548 34.84375 18.71875 C 34.181462 18.065153 33.243913 17.313926 31.96875 16.375 C 29.418424 14.497148 25.611709 11.953529 20.65625 8.75 A 1.0001 1.0001 0 0 0 20.625 8.75 C 19.593594 8.0922915 18.473779 7.8560348 17.34375 7.90625 z M 17.40625 9.84375 C 18.162106 9.8024954 18.868906 9.9952085 19.5625 10.4375 C 24.507041 13.633971 28.306576 16.146602 30.78125 17.96875 C 30.815563 17.994015 30.84122 18.006226 30.875 18.03125 C 30.713364 18.025477 30.575548 18 30.40625 18 C 25.965899 18 22.015068 21.985689 19.03125 26.5 C 16.047432 31.014311 14 36.109322 14 39.5 C 14 41.071692 14.287359 42.477434 14.78125 43.71875 C 13.321965 42.478124 11.834747 41.024533 10.46875 39.4375 C 8.5783847 37.24125 6.8907969 34.834867 5.6875 32.65625 C 4.4842031 30.477633 3.8125 28.504167 3.8125 27.3125 C 3.8125 26.283488 4.3896877 24.24582 5.4375 22.0625 C 6.4853123 19.87918 7.9795323 17.488528 9.65625 15.40625 C 11.332968 13.323972 13.215288 11.554546 14.96875 10.625 C 15.845481 10.160227 16.650394 9.8850046 17.40625 9.84375 z M 30.40625 20 C 32.174671 20 33.130422 20.335992 33.65625 20.78125 C 33.787707 20.892564 33.900832 21.017399 34 21.15625 A 1.0001 1.0001 0 0 0 34.03125 21.1875 C 34.314007 21.600012 34.464923 22.143174 34.5625 22.875 C 34.829796 24.879718 34.351929 27.99942 35.21875 31.25 C 36.760799 37.109787 39 40.138426 39 43.3125 C 39 44.912073 38.341851 45.849353 36.375 46.6875 C 34.408149 47.525647 31.13617 48 26.5 48 C 24.816261 48 23.30381 47.786557 21.96875 47.40625 A 1.0001 1.0001 0 0 0 21.65625 47.3125 C 20.581303 46.974281 19.621745 46.529349 18.84375 45.9375 C 17.047427 44.570972 16 42.557576 16 39.5 C 16 36.990678 17.871318 31.854439 20.6875 27.59375 C 23.503682 23.333061 27.246601 20 30.40625 20 z M 28.71875 26.375 C 27.678125 26.276562 26.21875 27.1125 25.09375 28.6875 C 23.59375 30.7875 22.80625 34.39375 24.40625 34.59375 C 25.20625 34.69375 25.19375 32.5875 26.59375 30.1875 C 28.19375 27.5875 30.29375 27.6125 29.59375 26.8125 C 29.36875 26.5625 29.065625 26.407812 28.71875 26.375 z M 32.6875 34.09375 C 31.8875 34.39375 32.8875 40.40625 32.1875 41.40625 C 30.8875 43.40625 26 43.3125 26 44.3125 C 26 45.2125 33.70625 44.70625 34.90625 43.90625 C 36.70625 42.60625 33.3875 33.89375 32.6875 34.09375 z"/>
</svg>
